<svg xmlns="http://www.w3.org/2000/svg" viewBox="0 0 640 320" width="640" height="320" role="img" aria-label="Largest common fragment in RLE sequences">
<style>
  .bg{fill:#f6f7f9;stroke:#d8dde3}
  .ink{fill:#1f2a33}.mut{fill:#5b6773}.ax{stroke:#8a96a3}
  .grid{stroke:#e3e7eb}
  .blue{fill:#1d4e6e}.blueS{stroke:#1d4e6e}
  .ochre{fill:#b8860b}.ochreS{stroke:#b8860b}
  .wine{fill:#7b2d3b}.wineS{stroke:#7b2d3b}
  .green{fill:#2d5a4a}.greenS{stroke:#2d5a4a}
  .soft{fill:#dbe6ee}.hole{fill:#f6f7f9;stroke:#9aa7b3}
  text{font-family:Georgia, 'Times New Roman', 'DejaVu Serif', serif}
  @media (prefers-color-scheme: dark){
    .bg{fill:#161b22;stroke:#30363d}
    .ink{fill:#e6edf3}.mut{fill:#9aa7b3}.ax{stroke:#6e7b88}
    .grid{stroke:#262d36}
    .blue{fill:#6fa8d1}.blueS{stroke:#6fa8d1}
    .ochre{fill:#e0b54a}.ochreS{stroke:#e0b54a}
    .wine{fill:#d98a98}.wineS{stroke:#d98a98}
    .green{fill:#7fbfa6}.greenS{stroke:#7fbfa6}
    .soft{fill:#23384a}.hole{fill:#161b22;stroke:#56626e}
  }
</style>
<rect class="bg" x="0.5" y="0.5" width="639" height="319" rx="14"/>
<text class="ink" x="32" y="42" font-size="17">Largest common fragment after RLE</text>
<text class="mut" x="32" y="62" font-size="12.5" font-style="italic">two sequences, run-length encoded; the shared block of runs is highlighted</text>
<text class="mut" x="32" y="97" font-size="13" font-style="italic">x</text>
<rect class="blue" x="70.0" y="84" width="12" height="18" rx="2" opacity="0.9"/>
<rect class="blue" x="84.5" y="84" width="12" height="18" rx="2" opacity="0.9"/>
<rect class="blue" x="99.0" y="84" width="12" height="18" rx="2" opacity="0.9"/>
<rect class="ochre" x="119.5" y="84" width="12" height="18" rx="2" opacity="0.9"/>
<rect class="green" x="140.0" y="84" width="12" height="18" rx="2" opacity="0.9"/>
<rect class="green" x="154.5" y="84" width="12" height="18" rx="2" opacity="0.9"/>
<rect class="blue" x="175.0" y="84" width="12" height="18" rx="2" opacity="0.9"/>
<rect class="blue" x="189.5" y="84" width="12" height="18" rx="2" opacity="0.9"/>
<rect class="ochre" x="210.0" y="84" width="12" height="18" rx="2" opacity="0.9"/>
<rect class="ochre" x="224.5" y="84" width="12" height="18" rx="2" opacity="0.9"/>
<rect class="ochre" x="239.0" y="84" width="12" height="18" rx="2" opacity="0.9"/>
<rect class="green" x="259.5" y="84" width="12" height="18" rx="2" opacity="0.9"/>
<rect class="blue" x="280.0" y="84" width="12" height="18" rx="2" opacity="0.9"/>
<rect class="green" x="300.5" y="84" width="12" height="18" rx="2" opacity="0.9"/>
<rect class="green" x="315.0" y="84" width="12" height="18" rx="2" opacity="0.9"/>
<text class="blue" x="93.0" y="140" font-size="17" text-anchor="middle" font-style="italic">a<tspan font-size="11" dy="-7">3</tspan></text>
<text class="ochre" x="145.0" y="140" font-size="17" text-anchor="middle" font-style="italic">b<tspan font-size="11" dy="-7">1</tspan></text>
<rect class="soft" x="172" y="123" width="50" height="26" rx="5"/>
<text class="green" x="197.0" y="140" font-size="17" text-anchor="middle" font-style="italic">c<tspan font-size="11" dy="-7">2</tspan></text>
<rect class="soft" x="224" y="123" width="50" height="26" rx="5"/>
<text class="blue" x="249.0" y="140" font-size="17" text-anchor="middle" font-style="italic">a<tspan font-size="11" dy="-7">2</tspan></text>
<rect class="soft" x="276" y="123" width="50" height="26" rx="5"/>
<text class="ochre" x="301.0" y="140" font-size="17" text-anchor="middle" font-style="italic">b<tspan font-size="11" dy="-7">3</tspan></text>
<rect class="soft" x="328" y="123" width="50" height="26" rx="5"/>
<text class="green" x="353.0" y="140" font-size="17" text-anchor="middle" font-style="italic">c<tspan font-size="11" dy="-7">1</tspan></text>
<text class="blue" x="405.0" y="140" font-size="17" text-anchor="middle" font-style="italic">a<tspan font-size="11" dy="-7">1</tspan></text>
<text class="green" x="457.0" y="140" font-size="17" text-anchor="middle" font-style="italic">c<tspan font-size="11" dy="-7">2</tspan></text>
<text class="mut" x="32" y="209" font-size="13" font-style="italic">y</text>
<rect class="green" x="70.0" y="196" width="12" height="18" rx="2" opacity="0.9"/>
<rect class="ochre" x="90.5" y="196" width="12" height="18" rx="2" opacity="0.9"/>
<rect class="ochre" x="105.0" y="196" width="12" height="18" rx="2" opacity="0.9"/>
<rect class="green" x="125.5" y="196" width="12" height="18" rx="2" opacity="0.9"/>
<rect class="green" x="140.0" y="196" width="12" height="18" rx="2" opacity="0.9"/>
<rect class="blue" x="160.5" y="196" width="12" height="18" rx="2" opacity="0.9"/>
<rect class="blue" x="175.0" y="196" width="12" height="18" rx="2" opacity="0.9"/>
<rect class="ochre" x="195.5" y="196" width="12" height="18" rx="2" opacity="0.9"/>
<rect class="ochre" x="210.0" y="196" width="12" height="18" rx="2" opacity="0.9"/>
<rect class="ochre" x="224.5" y="196" width="12" height="18" rx="2" opacity="0.9"/>
<rect class="green" x="245.0" y="196" width="12" height="18" rx="2" opacity="0.9"/>
<rect class="ochre" x="265.5" y="196" width="12" height="18" rx="2" opacity="0.9"/>
<rect class="ochre" x="280.0" y="196" width="12" height="18" rx="2" opacity="0.9"/>
<text class="green" x="93.0" y="252" font-size="17" text-anchor="middle" font-style="italic">c<tspan font-size="11" dy="-7">1</tspan></text>
<text class="ochre" x="145.0" y="252" font-size="17" text-anchor="middle" font-style="italic">b<tspan font-size="11" dy="-7">2</tspan></text>
<rect class="soft" x="172" y="235" width="50" height="26" rx="5"/>
<text class="green" x="197.0" y="252" font-size="17" text-anchor="middle" font-style="italic">c<tspan font-size="11" dy="-7">2</tspan></text>
<rect class="soft" x="224" y="235" width="50" height="26" rx="5"/>
<text class="blue" x="249.0" y="252" font-size="17" text-anchor="middle" font-style="italic">a<tspan font-size="11" dy="-7">2</tspan></text>
<rect class="soft" x="276" y="235" width="50" height="26" rx="5"/>
<text class="ochre" x="301.0" y="252" font-size="17" text-anchor="middle" font-style="italic">b<tspan font-size="11" dy="-7">3</tspan></text>
<rect class="soft" x="328" y="235" width="50" height="26" rx="5"/>
<text class="green" x="353.0" y="252" font-size="17" text-anchor="middle" font-style="italic">c<tspan font-size="11" dy="-7">1</tspan></text>
<text class="ochre" x="405.0" y="252" font-size="17" text-anchor="middle" font-style="italic">b<tspan font-size="11" dy="-7">2</tspan></text>
<text class="mut" x="36" y="144" font-size="12">RLE</text>
<text class="mut" x="36" y="256" font-size="12">RLE</text>
<path class="wineS" d="M275.0 150 L275.0 229" stroke-width="1.4" stroke-dasharray="3 3" fill="none"/>
<text class="wine" x="394.0" y="200" font-size="12.5" font-style="italic">common fragment, length 4</text>
<text class="mut" x="608" y="298" font-size="12" text-anchor="end" font-style="italic">growth rate governed by order-2 Rényi entropy</text>
</svg>
